<svg width="116" height="28" viewBox="0 0 116 28" fill="none" xmlns="http://www.w3.org/2000/svg">
<g clip-path="url(#clip0_3781_90455)">
<path d="M18.7 8.8H11L12 5.1H19.7L21.1 0H5.9L0 21.7H7.4L9.6 13.6H17.3L18.7 8.8Z" fill="#368727"/>
<path d="M30.4004 0H23.1004L21.9004 4.3H29.2004L30.4004 0Z" fill="#368727"/>
<path d="M21.4992 5.7998L17.1992 21.5998H24.4992L28.7992 5.7998H21.4992" fill="#368727"/>
<path d="M41.9996 -9.76548e-05L39.9996 7.5999C39.3996 6.3999 37.8996 5.4999 35.7996 5.4999C33.3996 5.4999 31.2996 6.5999 30.1996 8.6999C28.5996 11.4999 27.5996 15.5999 27.5996 18.2999C27.5996 20.7999 29.0996 21.8999 31.4996 21.8999C33.8996 21.8999 35.2996 20.9999 36.7996 19.7999L36.2996 21.5999H43.4996L49.3996 -0.100098L41.9996 -9.76548e-05ZM37.6996 16.3999C37.3996 16.5999 36.9996 16.7999 36.4996 16.7999C35.7996 16.7999 35.3996 16.2999 35.3996 15.6999C35.3996 14.3999 35.8996 13.0999 36.3996 11.6999C36.7996 10.7999 37.3996 10.5999 38.0996 10.5999C38.5996 10.5999 38.9996 10.8999 39.2996 11.1999L37.6996 16.3999Z" fill="#368727"/>
<path d="M64.0992 14.8C64.4992 13.5 64.8992 11.4 64.8992 10.4C64.8992 6.4 61.9992 5.5 57.3992 5.5C54.4992 5.5 51.1992 6.4 49.3992 8.9C47.8992 11 46.6992 14.9 46.6992 17.2C46.6992 21.5 50.0992 22.1 54.3992 22.1C57.5992 22.1 62.7992 20.6 63.6992 16.1H56.4992C56.1992 17.6 55.7992 18 54.6992 18C53.6992 18 53.5992 17.2 53.5992 16.9C53.5992 16.2 53.7992 15.7 53.9992 14.8H64.0992V14.8ZM56.7992 9.4C57.5992 9.4 58.0992 9.7 58.0992 10.5C58.0992 10.8 57.9992 11.3 57.8992 11.6H54.8992C55.1992 10.1 55.7992 9.4 56.7992 9.4Z" fill="#368727"/>
<path d="M70.0992 0L64.1992 21.7H71.4992L77.2992 0H70.0992Z" fill="#368727"/>
<path d="M87.0996 0H79.7996L78.5996 4.3H85.8996L87.0996 0Z" fill="#368727"/>
<path d="M78.2008 5.7998L73.8008 21.6998H81.1008L85.4008 5.8998L78.2008 5.7998Z" fill="#368727"/>
<path d="M110.699 18.5C109.599 18.5 108.699 19.4 108.699 20.5C108.699 21.6 109.599 22.5 110.699 22.5C111.799 22.5 112.699 21.6 112.699 20.5C112.699 19.4 111.799 18.5 110.699 18.5ZM110.699 22.2C109.799 22.2 109.099 21.4 109.099 20.5C109.099 19.6 109.799 18.8 110.699 18.8C111.599 18.8 112.299 19.6 112.299 20.5C112.299 21.5 111.599 22.2 110.699 22.2Z" fill="#368727"/>
<path d="M111.4 20.1C111.4 19.7 111.2 19.5 110.7 19.5H109.9V21.6H110.3V20.7H110.6L111.1 21.6H111.5L110.9 20.7C111.2 20.7 111.4 20.5 111.4 20.1ZM110.3 20.4V19.8H110.6C110.8 19.8 111.1 19.8 111.1 20.1C111.1 20.4 110.8 20.4 110.6 20.4H110.3Z" fill="#368727"/>
<path d="M108.801 5.7998L104.801 14.5998L104.901 5.7998H94.9008L95.9008 2.2998H88.6008L84.6008 16.6998C84.4008 17.5998 84.3008 18.2998 84.3008 18.9998C84.3008 20.5998 85.1008 21.6998 87.3008 21.6998H93.8008L94.9008 17.7998H93.3008C92.3008 17.7998 92.0008 17.5998 92.0008 16.8998C92.0008 16.4998 92.1008 15.8998 92.3008 15.4998L93.9008 9.4998H97.9008L99.0008 21.7998C98.8008 22.6998 98.5008 23.1998 98.0008 23.4998C97.4008 23.7998 96.0008 23.6998 95.5008 23.6998H95.4008L94.2008 27.9998H99.2008C102.101 27.9998 103.601 26.4998 105.701 23.0998L116.401 5.8998L108.801 5.7998Z" fill="#368727"/>
</g>
<defs>
<clipPath id="clip0_3781_90455">
<rect width="116" height="28" fill="white"/>
</clipPath>
</defs>
</svg>
